<svg width="20" height="18" viewBox="0 0 20 18" fill="none" xmlns="http://www.w3.org/2000/svg">
<path d="M9.84163 17.285L13.9367 6.91398H15.7919L20 17.285H18.0317L17.1041 14.5626H12.7602L11.6968 17.285H9.84163ZM13.2579 13.0501H16.4706L14.8869 8.85854H14.8416L13.2579 13.0501ZM2.71493 14.6922L1.47059 13.5039L6.08597 9.09621C5.51282 8.46243 5.00377 7.82504 4.55882 7.18406C4.11388 6.54308 3.72549 5.87689 3.39367 5.18549H5.36199C5.6184 5.66082 5.90121 6.11095 6.21041 6.53587C6.51961 6.9608 6.87029 7.39652 7.26244 7.84305C7.94118 7.16606 8.50679 6.46385 8.95928 5.73645C9.41176 5.00904 9.79638 4.24922 10.1131 3.45699H0V1.7285H6.33484V0H8.1448V1.7285H14.4796V3.45699H11.9231C11.5913 4.45088 11.1501 5.42676 10.5995 6.38463C10.049 7.34251 9.37406 8.25357 8.57466 9.11782L10.7919 11.2568L10.1131 13.0069L7.23982 10.371L2.71493 14.6922Z" fill="url(#paint0_linear_25_57)"/>
<defs>
<linearGradient id="paint0_linear_25_57" x1="10" y1="0" x2="10" y2="17.285" gradientUnits="userSpaceOnUse">
<stop stop-color="#3DFCFC"/>
<stop offset="1" stop-color="#007DB3" stop-opacity="0.68"/>
</linearGradient>
</defs>
</svg>
