<svg width="204" height="35" viewBox="0 0 204 35" fill="none" xmlns="http://www.w3.org/2000/svg">
<path d="M11.064 21.28H7.992V34H0.119995V0.735992H11.016C15.56 0.735992 18.968 1.56799 21.24 3.23199C23.544 4.89599 24.696 7.43999 24.696 10.864C24.696 13.008 24.184 14.8 23.16 16.24C22.136 17.648 20.52 18.848 18.312 19.84L26.76 34H17.88L11.064 21.28ZM7.992 15.856H11.304C13.064 15.856 14.376 15.456 15.24 14.656C16.136 13.856 16.584 12.592 16.584 10.864C16.584 9.26399 16.104 8.09599 15.144 7.35999C14.216 6.62399 12.776 6.25599 10.824 6.25599H7.992V15.856Z" fill="#141414"/>
<path d="M39.9379 7.69599C43.8419 7.69599 46.8979 8.89599 49.1059 11.296C51.3139 13.664 52.4179 16.992 52.4179 21.28C52.4179 24 51.9059 26.384 50.8819 28.432C49.8899 30.448 48.4499 32.016 46.5619 33.136C44.7059 34.256 42.4979 34.816 39.9379 34.816C36.0659 34.816 33.0099 33.632 30.7699 31.264C28.5619 28.864 27.4579 25.52 27.4579 21.232C27.4579 18.512 27.9539 16.144 28.9459 14.128C29.9699 12.08 31.4099 10.496 33.2659 9.37599C35.1539 8.25599 37.3779 7.69599 39.9379 7.69599ZM39.9379 13.264C38.4019 13.264 37.2499 13.92 36.4819 15.232C35.7139 16.512 35.3299 18.512 35.3299 21.232C35.3299 24.016 35.6979 26.048 36.4339 27.328C37.2019 28.608 38.3699 29.248 39.9379 29.248C41.4739 29.248 42.6259 28.608 43.3939 27.328C44.1619 26.016 44.5459 24 44.5459 21.28C44.5459 18.496 44.1619 16.464 43.3939 15.184C42.6579 13.904 41.5059 13.264 39.9379 13.264Z" fill="#141414"/>
<path d="M71.8571 7.69599C74.0651 7.69599 75.7931 8.36799 77.0411 9.71199C78.2891 11.056 78.9131 12.944 78.9131 15.376V34H71.3291V16.672C71.3291 15.392 71.1211 14.512 70.7051 14.032C70.3211 13.52 69.7291 13.264 68.9291 13.264C67.3931 13.264 65.9211 14.368 64.5131 16.576V34H56.9291V8.51199H63.5531L64.0811 11.536C65.1691 10.256 66.3371 9.29599 67.5851 8.65599C68.8651 8.01599 70.2891 7.69599 71.8571 7.69599Z" fill="#141414"/>
<path d="M106.856 20.752C106.856 21.808 106.808 22.72 106.712 23.488H90.9202C91.1762 25.632 91.7842 27.136 92.7442 28C93.7042 28.864 95.0322 29.296 96.7282 29.296C97.7522 29.296 98.7442 29.12 99.7042 28.768C100.664 28.384 101.704 27.808 102.824 27.04L105.944 31.264C102.968 33.632 99.6562 34.816 96.0082 34.816C91.8802 34.816 88.7122 33.6 86.5042 31.168C84.2962 28.736 83.1922 25.472 83.1922 21.376C83.1922 18.784 83.6562 16.464 84.5842 14.416C85.5122 12.336 86.8722 10.704 88.6642 9.51999C90.4562 8.30399 92.6002 7.69599 95.0962 7.69599C98.7762 7.69599 101.656 8.84799 103.736 11.152C105.816 13.456 106.856 16.656 106.856 20.752ZM99.4162 18.592C99.3522 14.688 97.9762 12.736 95.2882 12.736C93.9762 12.736 92.9522 13.216 92.2162 14.176C91.5122 15.136 91.0802 16.72 90.9202 18.928H99.4162V18.592Z" fill="#141414"/>
<path d="M124.941 7.79199C125.869 7.79199 126.717 7.90399 127.485 8.12799L126.285 15.472C125.325 15.248 124.557 15.136 123.981 15.136C122.477 15.136 121.325 15.664 120.525 16.72C119.757 17.744 119.149 19.296 118.701 21.376V34H111.117V8.51199H117.741L118.365 13.456C118.941 11.696 119.805 10.32 120.957 9.32799C122.141 8.30399 123.469 7.79199 124.941 7.79199Z" fill="#141414"/>
<path d="M138.796 7.69599C140.62 7.69599 142.332 7.96799 143.932 8.51199C145.532 9.05599 146.94 9.82399 148.156 10.816L145.372 15.088C143.292 13.776 141.196 13.12 139.084 13.12C138.092 13.12 137.324 13.296 136.78 13.648C136.268 13.968 136.012 14.432 136.012 15.04C136.012 15.52 136.124 15.92 136.348 16.24C136.604 16.528 137.1 16.832 137.836 17.152C138.572 17.472 139.708 17.856 141.244 18.304C143.9 19.072 145.868 20.08 147.148 21.328C148.46 22.544 149.116 24.24 149.116 26.416C149.116 28.144 148.62 29.648 147.628 30.928C146.636 32.176 145.276 33.136 143.548 33.808C141.82 34.48 139.9 34.816 137.788 34.816C135.644 34.816 133.644 34.48 131.788 33.808C129.964 33.136 128.412 32.208 127.132 31.024L130.828 26.896C132.972 28.56 135.228 29.392 137.596 29.392C138.748 29.392 139.644 29.184 140.284 28.768C140.956 28.352 141.292 27.76 141.292 26.992C141.292 26.384 141.164 25.904 140.908 25.552C140.652 25.2 140.156 24.88 139.42 24.592C138.684 24.272 137.516 23.888 135.916 23.44C133.388 22.704 131.5 21.68 130.252 20.368C129.004 19.056 128.38 17.424 128.38 15.472C128.38 14 128.796 12.688 129.628 11.536C130.492 10.352 131.708 9.42399 133.276 8.75199C134.876 8.04799 136.716 7.69599 138.796 7.69599Z" fill="#141414"/>
<path d="M164.063 7.69599C167.967 7.69599 171.023 8.89599 173.231 11.296C175.439 13.664 176.543 16.992 176.543 21.28C176.543 24 176.031 26.384 175.007 28.432C174.015 30.448 172.575 32.016 170.687 33.136C168.831 34.256 166.623 34.816 164.063 34.816C160.191 34.816 157.135 33.632 154.895 31.264C152.687 28.864 151.583 25.52 151.583 21.232C151.583 18.512 152.079 16.144 153.071 14.128C154.095 12.08 155.535 10.496 157.391 9.37599C159.279 8.25599 161.503 7.69599 164.063 7.69599ZM164.063 13.264C162.527 13.264 161.375 13.92 160.607 15.232C159.839 16.512 159.455 18.512 159.455 21.232C159.455 24.016 159.823 26.048 160.559 27.328C161.327 28.608 162.495 29.248 164.063 29.248C165.599 29.248 166.751 28.608 167.519 27.328C168.287 26.016 168.671 24 168.671 21.28C168.671 18.496 168.287 16.464 167.519 15.184C166.783 13.904 165.631 13.264 164.063 13.264Z" fill="#141414"/>
<path d="M195.982 7.69599C198.19 7.69599 199.918 8.36799 201.166 9.71199C202.414 11.056 203.038 12.944 203.038 15.376V34H195.454V16.672C195.454 15.392 195.246 14.512 194.83 14.032C194.446 13.52 193.854 13.264 193.054 13.264C191.518 13.264 190.046 14.368 188.638 16.576V34H181.054V8.51199H187.678L188.206 11.536C189.294 10.256 190.462 9.29599 191.71 8.65599C192.99 8.01599 194.414 7.69599 195.982 7.69599Z" fill="#141414"/>
</svg>
